<svg width="132" height="28" viewBox="0 0 132 28" fill="none" xmlns="http://www.w3.org/2000/svg">
<path d="M42.1523 14.3838H38.8652L38.8477 12.5732H41.6074C42.0938 12.5732 42.4922 12.5117 42.8027 12.3887C43.1133 12.2598 43.3447 12.0752 43.4971 11.835C43.6553 11.5889 43.7344 11.29 43.7344 10.9385C43.7344 10.54 43.6582 10.2178 43.5059 9.97168C43.3594 9.72559 43.1279 9.54688 42.8115 9.43555C42.501 9.32422 42.0996 9.26855 41.6074 9.26855H39.7793V20H37.1426V7.20312H41.6074C42.3516 7.20312 43.0166 7.27344 43.6025 7.41406C44.1943 7.55469 44.6953 7.76855 45.1055 8.05566C45.5156 8.34277 45.8291 8.70605 46.0459 9.14551C46.2627 9.5791 46.3711 10.0947 46.3711 10.6924C46.3711 11.2197 46.251 11.7061 46.0107 12.1514C45.7764 12.5967 45.4043 12.96 44.8945 13.2412C44.3906 13.5225 43.7314 13.6777 42.917 13.707L42.1523 14.3838ZM42.0381 20H38.1445L39.1729 17.9434H42.0381C42.501 17.9434 42.8789 17.8701 43.1719 17.7236C43.4648 17.5713 43.6816 17.3662 43.8223 17.1084C43.9629 16.8506 44.0332 16.5547 44.0332 16.2207C44.0332 15.8457 43.9688 15.5205 43.8398 15.2451C43.7168 14.9697 43.5176 14.7588 43.2422 14.6123C42.9668 14.46 42.6035 14.3838 42.1523 14.3838H39.6123L39.6299 12.5732H42.7939L43.4004 13.2852C44.1797 13.2734 44.8066 13.4111 45.2812 13.6982C45.7617 13.9795 46.1104 14.3457 46.3271 14.7969C46.5498 15.248 46.6611 15.7314 46.6611 16.2471C46.6611 17.0674 46.4824 17.7588 46.125 18.3213C45.7676 18.8779 45.2432 19.2969 44.5518 19.5781C43.8662 19.8594 43.0283 20 42.0381 20ZM51.0117 12.5645V20H48.4805V10.4902H50.8623L51.0117 12.5645ZM53.877 10.4287L53.833 12.7754C53.71 12.7578 53.5605 12.7432 53.3848 12.7314C53.2148 12.7139 53.0596 12.7051 52.9189 12.7051C52.5615 12.7051 52.251 12.752 51.9873 12.8457C51.7295 12.9336 51.5127 13.0654 51.3369 13.2412C51.167 13.417 51.0381 13.6309 50.9502 13.8828C50.8682 14.1348 50.8213 14.4219 50.8096 14.7441L50.2998 14.5859C50.2998 13.9707 50.3613 13.4053 50.4844 12.8896C50.6074 12.3682 50.7861 11.9141 51.0205 11.5273C51.2607 11.1406 51.5537 10.8418 51.8994 10.6309C52.2451 10.4199 52.6406 10.3145 53.0859 10.3145C53.2266 10.3145 53.3701 10.3262 53.5166 10.3496C53.6631 10.3672 53.7832 10.3936 53.877 10.4287ZM59.9062 17.8555V13.6191C59.9062 13.3145 59.8564 13.0537 59.7568 12.8369C59.6572 12.6143 59.502 12.4414 59.291 12.3184C59.0859 12.1953 58.8193 12.1338 58.4912 12.1338C58.21 12.1338 57.9668 12.1836 57.7617 12.2832C57.5566 12.377 57.3984 12.5146 57.2871 12.6963C57.1758 12.8721 57.1201 13.0801 57.1201 13.3203H54.5889C54.5889 12.916 54.6826 12.5322 54.8701 12.1689C55.0576 11.8057 55.3301 11.4863 55.6875 11.2109C56.0449 10.9297 56.4697 10.71 56.9619 10.5518C57.46 10.3936 58.0166 10.3145 58.6318 10.3145C59.3701 10.3145 60.0264 10.4375 60.6006 10.6836C61.1748 10.9297 61.626 11.2988 61.9541 11.791C62.2881 12.2832 62.4551 12.8984 62.4551 13.6367V17.7061C62.4551 18.2275 62.4873 18.6553 62.5518 18.9893C62.6162 19.3174 62.71 19.6045 62.833 19.8506V20H60.2754C60.1523 19.7422 60.0586 19.4199 59.9941 19.0332C59.9355 18.6406 59.9062 18.248 59.9062 17.8555ZM60.2402 14.208L60.2578 15.6406H58.8428C58.5088 15.6406 58.2188 15.6787 57.9727 15.7549C57.7266 15.8311 57.5244 15.9395 57.3662 16.0801C57.208 16.2148 57.0908 16.373 57.0146 16.5547C56.9443 16.7363 56.9092 16.9355 56.9092 17.1523C56.9092 17.3691 56.959 17.5654 57.0586 17.7412C57.1582 17.9111 57.3018 18.0459 57.4893 18.1455C57.6768 18.2393 57.8965 18.2861 58.1484 18.2861C58.5293 18.2861 58.8604 18.21 59.1416 18.0576C59.4229 17.9053 59.6396 17.7178 59.792 17.4951C59.9502 17.2725 60.0322 17.0615 60.0381 16.8623L60.7061 17.9346C60.6123 18.1748 60.4834 18.4238 60.3193 18.6816C60.1611 18.9395 59.959 19.1826 59.7129 19.4111C59.4668 19.6338 59.1709 19.8184 58.8252 19.9648C58.4795 20.1055 58.0693 20.1758 57.5947 20.1758C56.9912 20.1758 56.4434 20.0557 55.9512 19.8154C55.4648 19.5693 55.0781 19.2324 54.791 18.8047C54.5098 18.3711 54.3691 17.8789 54.3691 17.3281C54.3691 16.8301 54.4629 16.3877 54.6504 16.001C54.8379 15.6143 55.1133 15.2891 55.4766 15.0254C55.8457 14.7559 56.3057 14.5537 56.8564 14.4189C57.4072 14.2783 58.0459 14.208 58.7725 14.208H60.2402ZM67.5 18.1543L69.6094 10.4902H72.2549L69.0469 20H67.4473L67.5 18.1543ZM66.0498 10.4902L68.168 18.1631L68.2119 20H66.6035L63.3955 10.4902H66.0498ZM77.6426 20.1758C76.9043 20.1758 76.2422 20.0586 75.6562 19.8242C75.0703 19.584 74.5723 19.2529 74.1621 18.8311C73.7578 18.4092 73.4473 17.9199 73.2305 17.3633C73.0137 16.8008 72.9053 16.2031 72.9053 15.5703V15.2188C72.9053 14.498 73.0078 13.8389 73.2129 13.2412C73.418 12.6436 73.7109 12.125 74.0918 11.6855C74.4785 11.2461 74.9473 10.9092 75.498 10.6748C76.0488 10.4346 76.6699 10.3145 77.3613 10.3145C78.0352 10.3145 78.6328 10.4258 79.1543 10.6484C79.6758 10.8711 80.1123 11.1875 80.4639 11.5977C80.8213 12.0078 81.0908 12.5 81.2725 13.0742C81.4541 13.6426 81.5449 14.2754 81.5449 14.9727V16.0273H73.9863V14.3398H79.0576V14.1465C79.0576 13.7949 78.9932 13.4814 78.8643 13.2061C78.7412 12.9248 78.5537 12.7021 78.3018 12.5381C78.0498 12.374 77.7275 12.292 77.335 12.292C77.001 12.292 76.7139 12.3652 76.4736 12.5117C76.2334 12.6582 76.0371 12.8633 75.8848 13.127C75.7383 13.3906 75.627 13.7012 75.5508 14.0586C75.4805 14.4102 75.4453 14.7969 75.4453 15.2188V15.5703C75.4453 15.9512 75.498 16.3027 75.6035 16.625C75.7148 16.9473 75.8701 17.2256 76.0693 17.46C76.2744 17.6943 76.5205 17.876 76.8076 18.0049C77.1006 18.1338 77.4316 18.1982 77.8008 18.1982C78.2578 18.1982 78.6826 18.1104 79.0752 17.9346C79.4736 17.7529 79.8164 17.4805 80.1035 17.1172L81.334 18.4531C81.1348 18.7402 80.8623 19.0156 80.5166 19.2793C80.1768 19.543 79.7666 19.7598 79.2861 19.9297C78.8057 20.0938 78.2578 20.1758 77.6426 20.1758ZM89.8066 16.6514C89.8066 16.4229 89.7715 16.2178 89.7012 16.0361C89.6367 15.8486 89.5137 15.6787 89.332 15.5264C89.1504 15.3682 88.8955 15.2129 88.5674 15.0605C88.2393 14.9082 87.8145 14.75 87.293 14.5859C86.7129 14.3984 86.1621 14.1875 85.6406 13.9531C85.125 13.7188 84.668 13.4463 84.2695 13.1357C83.877 12.8193 83.5664 12.4531 83.3379 12.0371C83.1152 11.6211 83.0039 11.1377 83.0039 10.5869C83.0039 10.0537 83.1211 9.57031 83.3555 9.13672C83.5898 8.69727 83.918 8.32227 84.3398 8.01172C84.7617 7.69531 85.2598 7.45215 85.834 7.28223C86.4141 7.1123 87.0498 7.02734 87.7412 7.02734C88.6846 7.02734 89.5078 7.19727 90.2109 7.53711C90.9141 7.87695 91.459 8.34277 91.8457 8.93457C92.2383 9.52637 92.4346 10.2031 92.4346 10.9648H89.8154C89.8154 10.5898 89.7363 10.2617 89.5781 9.98047C89.4258 9.69336 89.1914 9.46777 88.875 9.30371C88.5645 9.13965 88.1719 9.05762 87.6973 9.05762C87.2402 9.05762 86.8594 9.12793 86.5547 9.26855C86.25 9.40332 86.0215 9.58789 85.8691 9.82227C85.7168 10.0508 85.6406 10.3086 85.6406 10.5957C85.6406 10.8125 85.6934 11.0088 85.7988 11.1846C85.9102 11.3604 86.0742 11.5244 86.291 11.6768C86.5078 11.8291 86.7744 11.9727 87.0908 12.1074C87.4072 12.2422 87.7734 12.374 88.1895 12.5029C88.8867 12.7139 89.499 12.9512 90.0264 13.2148C90.5596 13.4785 91.0049 13.7744 91.3623 14.1025C91.7197 14.4307 91.9893 14.8027 92.1709 15.2188C92.3525 15.6348 92.4434 16.1064 92.4434 16.6338C92.4434 17.1904 92.335 17.6885 92.1182 18.1279C91.9014 18.5674 91.5879 18.9395 91.1777 19.2441C90.7676 19.5488 90.2783 19.7803 89.71 19.9385C89.1416 20.0967 88.5059 20.1758 87.8027 20.1758C87.1699 20.1758 86.5459 20.0938 85.9307 19.9297C85.3154 19.7598 84.7559 19.5049 84.252 19.165C83.7539 18.8252 83.3555 18.3916 83.0566 17.8643C82.7578 17.3369 82.6084 16.7129 82.6084 15.9922H85.2539C85.2539 16.3906 85.3154 16.7275 85.4385 17.0029C85.5615 17.2783 85.7344 17.501 85.957 17.6709C86.1855 17.8408 86.4551 17.9639 86.7656 18.04C87.082 18.1162 87.4277 18.1543 87.8027 18.1543C88.2598 18.1543 88.6348 18.0898 88.9277 17.9609C89.2266 17.832 89.4463 17.6533 89.5869 17.4248C89.7334 17.1963 89.8066 16.9385 89.8066 16.6514ZM93.6738 15.3418V15.1572C93.6738 14.46 93.7734 13.8184 93.9727 13.2324C94.1719 12.6406 94.4619 12.1279 94.8428 11.6943C95.2236 11.2607 95.6924 10.9238 96.249 10.6836C96.8057 10.4375 97.4443 10.3145 98.165 10.3145C98.8857 10.3145 99.5273 10.4375 100.09 10.6836C100.652 10.9238 101.124 11.2607 101.505 11.6943C101.892 12.1279 102.185 12.6406 102.384 13.2324C102.583 13.8184 102.683 14.46 102.683 15.1572V15.3418C102.683 16.0332 102.583 16.6748 102.384 17.2666C102.185 17.8525 101.892 18.3652 101.505 18.8047C101.124 19.2383 100.655 19.5752 100.099 19.8154C99.542 20.0557 98.9033 20.1758 98.1826 20.1758C97.4619 20.1758 96.8203 20.0557 96.2578 19.8154C95.7012 19.5752 95.2295 19.2383 94.8428 18.8047C94.4619 18.3652 94.1719 17.8525 93.9727 17.2666C93.7734 16.6748 93.6738 16.0332 93.6738 15.3418ZM96.2051 15.1572V15.3418C96.2051 15.7402 96.2402 16.1123 96.3105 16.458C96.3809 16.8037 96.4922 17.1084 96.6445 17.3721C96.8027 17.6299 97.0078 17.832 97.2598 17.9785C97.5117 18.125 97.8193 18.1982 98.1826 18.1982C98.5342 18.1982 98.8359 18.125 99.0879 17.9785C99.3398 17.832 99.542 17.6299 99.6943 17.3721C99.8467 17.1084 99.958 16.8037 100.028 16.458C100.104 16.1123 100.143 15.7402 100.143 15.3418V15.1572C100.143 14.7705 100.104 14.4072 100.028 14.0674C99.958 13.7217 99.8438 13.417 99.6855 13.1533C99.5332 12.8838 99.3311 12.6729 99.0791 12.5205C98.8271 12.3682 98.5225 12.292 98.165 12.292C97.8076 12.292 97.5029 12.3682 97.251 12.5205C97.0049 12.6729 96.8027 12.8838 96.6445 13.1533C96.4922 13.417 96.3809 13.7217 96.3105 14.0674C96.2402 14.4072 96.2051 14.7705 96.2051 15.1572ZM108.167 18.1982C108.478 18.1982 108.753 18.1396 108.993 18.0225C109.233 17.8994 109.421 17.7295 109.556 17.5127C109.696 17.29 109.77 17.0293 109.775 16.7305H112.157C112.151 17.3984 111.973 17.9932 111.621 18.5146C111.27 19.0303 110.798 19.4375 110.206 19.7363C109.614 20.0293 108.952 20.1758 108.22 20.1758C107.481 20.1758 106.837 20.0527 106.286 19.8066C105.741 19.5605 105.287 19.2207 104.924 18.7871C104.561 18.3477 104.288 17.8379 104.106 17.2578C103.925 16.6719 103.834 16.0449 103.834 15.377V15.1221C103.834 14.4482 103.925 13.8213 104.106 13.2412C104.288 12.6553 104.561 12.1455 104.924 11.7119C105.287 11.2725 105.741 10.9297 106.286 10.6836C106.831 10.4375 107.47 10.3145 108.202 10.3145C108.981 10.3145 109.664 10.4639 110.25 10.7627C110.842 11.0615 111.305 11.4893 111.639 12.0459C111.979 12.5967 112.151 13.25 112.157 14.0059H109.775C109.77 13.6895 109.702 13.4023 109.573 13.1445C109.45 12.8867 109.269 12.6816 109.028 12.5293C108.794 12.3711 108.504 12.292 108.158 12.292C107.789 12.292 107.487 12.3711 107.253 12.5293C107.019 12.6816 106.837 12.8926 106.708 13.1621C106.579 13.4258 106.488 13.7275 106.436 14.0674C106.389 14.4014 106.365 14.7529 106.365 15.1221V15.377C106.365 15.7461 106.389 16.1006 106.436 16.4404C106.482 16.7803 106.57 17.082 106.699 17.3457C106.834 17.6094 107.019 17.8174 107.253 17.9697C107.487 18.1221 107.792 18.1982 108.167 18.1982ZM116.297 10.4902V20H113.757V10.4902H116.297ZM113.599 8.01172C113.599 7.64258 113.728 7.33789 113.985 7.09766C114.243 6.85742 114.589 6.7373 115.022 6.7373C115.45 6.7373 115.793 6.85742 116.051 7.09766C116.314 7.33789 116.446 7.64258 116.446 8.01172C116.446 8.38086 116.314 8.68555 116.051 8.92578C115.793 9.16602 115.45 9.28613 115.022 9.28613C114.589 9.28613 114.243 9.16602 113.985 8.92578C113.728 8.68555 113.599 8.38086 113.599 8.01172ZM123.521 17.8555V13.6191C123.521 13.3145 123.472 13.0537 123.372 12.8369C123.272 12.6143 123.117 12.4414 122.906 12.3184C122.701 12.1953 122.435 12.1338 122.106 12.1338C121.825 12.1338 121.582 12.1836 121.377 12.2832C121.172 12.377 121.014 12.5146 120.902 12.6963C120.791 12.8721 120.735 13.0801 120.735 13.3203H118.204C118.204 12.916 118.298 12.5322 118.485 12.1689C118.673 11.8057 118.945 11.4863 119.303 11.2109C119.66 10.9297 120.085 10.71 120.577 10.5518C121.075 10.3936 121.632 10.3145 122.247 10.3145C122.985 10.3145 123.642 10.4375 124.216 10.6836C124.79 10.9297 125.241 11.2988 125.569 11.791C125.903 12.2832 126.07 12.8984 126.07 13.6367V17.7061C126.07 18.2275 126.103 18.6553 126.167 18.9893C126.231 19.3174 126.325 19.6045 126.448 19.8506V20H123.891C123.768 19.7422 123.674 19.4199 123.609 19.0332C123.551 18.6406 123.521 18.248 123.521 17.8555ZM123.855 14.208L123.873 15.6406H122.458C122.124 15.6406 121.834 15.6787 121.588 15.7549C121.342 15.8311 121.14 15.9395 120.981 16.0801C120.823 16.2148 120.706 16.373 120.63 16.5547C120.56 16.7363 120.524 16.9355 120.524 17.1523C120.524 17.3691 120.574 17.5654 120.674 17.7412C120.773 17.9111 120.917 18.0459 121.104 18.1455C121.292 18.2393 121.512 18.2861 121.764 18.2861C122.145 18.2861 122.476 18.21 122.757 18.0576C123.038 17.9053 123.255 17.7178 123.407 17.4951C123.565 17.2725 123.647 17.0615 123.653 16.8623L124.321 17.9346C124.228 18.1748 124.099 18.4238 123.935 18.6816C123.776 18.9395 123.574 19.1826 123.328 19.4111C123.082 19.6338 122.786 19.8184 122.44 19.9648C122.095 20.1055 121.685 20.1758 121.21 20.1758C120.606 20.1758 120.059 20.0557 119.566 19.8154C119.08 19.5693 118.693 19.2324 118.406 18.8047C118.125 18.3711 117.984 17.8789 117.984 17.3281C117.984 16.8301 118.078 16.3877 118.266 16.001C118.453 15.6143 118.729 15.2891 119.092 15.0254C119.461 14.7559 119.921 14.5537 120.472 14.4189C121.022 14.2783 121.661 14.208 122.388 14.208H123.855ZM130.693 6.5V20H128.153V6.5H130.693Z" fill="white"/>
<path d="M42.1523 14.3838H38.8652L38.8477 12.5732H41.6074C42.0938 12.5732 42.4922 12.5117 42.8027 12.3887C43.1133 12.2598 43.3447 12.0752 43.4971 11.835C43.6553 11.5889 43.7344 11.29 43.7344 10.9385C43.7344 10.54 43.6582 10.2178 43.5059 9.97168C43.3594 9.72559 43.1279 9.54688 42.8115 9.43555C42.501 9.32422 42.0996 9.26855 41.6074 9.26855H39.7793V20H37.1426V7.20312H41.6074C42.3516 7.20312 43.0166 7.27344 43.6025 7.41406C44.1943 7.55469 44.6953 7.76855 45.1055 8.05566C45.5156 8.34277 45.8291 8.70605 46.0459 9.14551C46.2627 9.5791 46.3711 10.0947 46.3711 10.6924C46.3711 11.2197 46.251 11.7061 46.0107 12.1514C45.7764 12.5967 45.4043 12.96 44.8945 13.2412C44.3906 13.5225 43.7314 13.6777 42.917 13.707L42.1523 14.3838ZM42.0381 20H38.1445L39.1729 17.9434H42.0381C42.501 17.9434 42.8789 17.8701 43.1719 17.7236C43.4648 17.5713 43.6816 17.3662 43.8223 17.1084C43.9629 16.8506 44.0332 16.5547 44.0332 16.2207C44.0332 15.8457 43.9688 15.5205 43.8398 15.2451C43.7168 14.9697 43.5176 14.7588 43.2422 14.6123C42.9668 14.46 42.6035 14.3838 42.1523 14.3838H39.6123L39.6299 12.5732H42.7939L43.4004 13.2852C44.1797 13.2734 44.8066 13.4111 45.2812 13.6982C45.7617 13.9795 46.1104 14.3457 46.3271 14.7969C46.5498 15.248 46.6611 15.7314 46.6611 16.2471C46.6611 17.0674 46.4824 17.7588 46.125 18.3213C45.7676 18.8779 45.2432 19.2969 44.5518 19.5781C43.8662 19.8594 43.0283 20 42.0381 20ZM51.0117 12.5645V20H48.4805V10.4902H50.8623L51.0117 12.5645ZM53.877 10.4287L53.833 12.7754C53.71 12.7578 53.5605 12.7432 53.3848 12.7314C53.2148 12.7139 53.0596 12.7051 52.9189 12.7051C52.5615 12.7051 52.251 12.752 51.9873 12.8457C51.7295 12.9336 51.5127 13.0654 51.3369 13.2412C51.167 13.417 51.0381 13.6309 50.9502 13.8828C50.8682 14.1348 50.8213 14.4219 50.8096 14.7441L50.2998 14.5859C50.2998 13.9707 50.3613 13.4053 50.4844 12.8896C50.6074 12.3682 50.7861 11.9141 51.0205 11.5273C51.2607 11.1406 51.5537 10.8418 51.8994 10.6309C52.2451 10.4199 52.6406 10.3145 53.0859 10.3145C53.2266 10.3145 53.3701 10.3262 53.5166 10.3496C53.6631 10.3672 53.7832 10.3936 53.877 10.4287ZM59.9062 17.8555V13.6191C59.9062 13.3145 59.8564 13.0537 59.7568 12.8369C59.6572 12.6143 59.502 12.4414 59.291 12.3184C59.0859 12.1953 58.8193 12.1338 58.4912 12.1338C58.21 12.1338 57.9668 12.1836 57.7617 12.2832C57.5566 12.377 57.3984 12.5146 57.2871 12.6963C57.1758 12.8721 57.1201 13.0801 57.1201 13.3203H54.5889C54.5889 12.916 54.6826 12.5322 54.8701 12.1689C55.0576 11.8057 55.3301 11.4863 55.6875 11.2109C56.0449 10.9297 56.4697 10.71 56.9619 10.5518C57.46 10.3936 58.0166 10.3145 58.6318 10.3145C59.3701 10.3145 60.0264 10.4375 60.6006 10.6836C61.1748 10.9297 61.626 11.2988 61.9541 11.791C62.2881 12.2832 62.4551 12.8984 62.4551 13.6367V17.7061C62.4551 18.2275 62.4873 18.6553 62.5518 18.9893C62.6162 19.3174 62.71 19.6045 62.833 19.8506V20H60.2754C60.1523 19.7422 60.0586 19.4199 59.9941 19.0332C59.9355 18.6406 59.9062 18.248 59.9062 17.8555ZM60.2402 14.208L60.2578 15.6406H58.8428C58.5088 15.6406 58.2188 15.6787 57.9727 15.7549C57.7266 15.8311 57.5244 15.9395 57.3662 16.0801C57.208 16.2148 57.0908 16.373 57.0146 16.5547C56.9443 16.7363 56.9092 16.9355 56.9092 17.1523C56.9092 17.3691 56.959 17.5654 57.0586 17.7412C57.1582 17.9111 57.3018 18.0459 57.4893 18.1455C57.6768 18.2393 57.8965 18.2861 58.1484 18.2861C58.5293 18.2861 58.8604 18.21 59.1416 18.0576C59.4229 17.9053 59.6396 17.7178 59.792 17.4951C59.9502 17.2725 60.0322 17.0615 60.0381 16.8623L60.7061 17.9346C60.6123 18.1748 60.4834 18.4238 60.3193 18.6816C60.1611 18.9395 59.959 19.1826 59.7129 19.4111C59.4668 19.6338 59.1709 19.8184 58.8252 19.9648C58.4795 20.1055 58.0693 20.1758 57.5947 20.1758C56.9912 20.1758 56.4434 20.0557 55.9512 19.8154C55.4648 19.5693 55.0781 19.2324 54.791 18.8047C54.5098 18.3711 54.3691 17.8789 54.3691 17.3281C54.3691 16.8301 54.4629 16.3877 54.6504 16.001C54.8379 15.6143 55.1133 15.2891 55.4766 15.0254C55.8457 14.7559 56.3057 14.5537 56.8564 14.4189C57.4072 14.2783 58.0459 14.208 58.7725 14.208H60.2402ZM67.5 18.1543L69.6094 10.4902H72.2549L69.0469 20H67.4473L67.5 18.1543ZM66.0498 10.4902L68.168 18.1631L68.2119 20H66.6035L63.3955 10.4902H66.0498ZM77.6426 20.1758C76.9043 20.1758 76.2422 20.0586 75.6562 19.8242C75.0703 19.584 74.5723 19.2529 74.1621 18.8311C73.7578 18.4092 73.4473 17.9199 73.2305 17.3633C73.0137 16.8008 72.9053 16.2031 72.9053 15.5703V15.2188C72.9053 14.498 73.0078 13.8389 73.2129 13.2412C73.418 12.6436 73.7109 12.125 74.0918 11.6855C74.4785 11.2461 74.9473 10.9092 75.498 10.6748C76.0488 10.4346 76.6699 10.3145 77.3613 10.3145C78.0352 10.3145 78.6328 10.4258 79.1543 10.6484C79.6758 10.8711 80.1123 11.1875 80.4639 11.5977C80.8213 12.0078 81.0908 12.5 81.2725 13.0742C81.4541 13.6426 81.5449 14.2754 81.5449 14.9727V16.0273H73.9863V14.3398H79.0576V14.1465C79.0576 13.7949 78.9932 13.4814 78.8643 13.2061C78.7412 12.9248 78.5537 12.7021 78.3018 12.5381C78.0498 12.374 77.7275 12.292 77.335 12.292C77.001 12.292 76.7139 12.3652 76.4736 12.5117C76.2334 12.6582 76.0371 12.8633 75.8848 13.127C75.7383 13.3906 75.627 13.7012 75.5508 14.0586C75.4805 14.4102 75.4453 14.7969 75.4453 15.2188V15.5703C75.4453 15.9512 75.498 16.3027 75.6035 16.625C75.7148 16.9473 75.8701 17.2256 76.0693 17.46C76.2744 17.6943 76.5205 17.876 76.8076 18.0049C77.1006 18.1338 77.4316 18.1982 77.8008 18.1982C78.2578 18.1982 78.6826 18.1104 79.0752 17.9346C79.4736 17.7529 79.8164 17.4805 80.1035 17.1172L81.334 18.4531C81.1348 18.7402 80.8623 19.0156 80.5166 19.2793C80.1768 19.543 79.7666 19.7598 79.2861 19.9297C78.8057 20.0938 78.2578 20.1758 77.6426 20.1758ZM89.8066 16.6514C89.8066 16.4229 89.7715 16.2178 89.7012 16.0361C89.6367 15.8486 89.5137 15.6787 89.332 15.5264C89.1504 15.3682 88.8955 15.2129 88.5674 15.0605C88.2393 14.9082 87.8145 14.75 87.293 14.5859C86.7129 14.3984 86.1621 14.1875 85.6406 13.9531C85.125 13.7188 84.668 13.4463 84.2695 13.1357C83.877 12.8193 83.5664 12.4531 83.3379 12.0371C83.1152 11.6211 83.0039 11.1377 83.0039 10.5869C83.0039 10.0537 83.1211 9.57031 83.3555 9.13672C83.5898 8.69727 83.918 8.32227 84.3398 8.01172C84.7617 7.69531 85.2598 7.45215 85.834 7.28223C86.4141 7.1123 87.0498 7.02734 87.7412 7.02734C88.6846 7.02734 89.5078 7.19727 90.2109 7.53711C90.9141 7.87695 91.459 8.34277 91.8457 8.93457C92.2383 9.52637 92.4346 10.2031 92.4346 10.9648H89.8154C89.8154 10.5898 89.7363 10.2617 89.5781 9.98047C89.4258 9.69336 89.1914 9.46777 88.875 9.30371C88.5645 9.13965 88.1719 9.05762 87.6973 9.05762C87.2402 9.05762 86.8594 9.12793 86.5547 9.26855C86.25 9.40332 86.0215 9.58789 85.8691 9.82227C85.7168 10.0508 85.6406 10.3086 85.6406 10.5957C85.6406 10.8125 85.6934 11.0088 85.7988 11.1846C85.9102 11.3604 86.0742 11.5244 86.291 11.6768C86.5078 11.8291 86.7744 11.9727 87.0908 12.1074C87.4072 12.2422 87.7734 12.374 88.1895 12.5029C88.8867 12.7139 89.499 12.9512 90.0264 13.2148C90.5596 13.4785 91.0049 13.7744 91.3623 14.1025C91.7197 14.4307 91.9893 14.8027 92.1709 15.2188C92.3525 15.6348 92.4434 16.1064 92.4434 16.6338C92.4434 17.1904 92.335 17.6885 92.1182 18.1279C91.9014 18.5674 91.5879 18.9395 91.1777 19.2441C90.7676 19.5488 90.2783 19.7803 89.71 19.9385C89.1416 20.0967 88.5059 20.1758 87.8027 20.1758C87.1699 20.1758 86.5459 20.0938 85.9307 19.9297C85.3154 19.7598 84.7559 19.5049 84.252 19.165C83.7539 18.8252 83.3555 18.3916 83.0566 17.8643C82.7578 17.3369 82.6084 16.7129 82.6084 15.9922H85.2539C85.2539 16.3906 85.3154 16.7275 85.4385 17.0029C85.5615 17.2783 85.7344 17.501 85.957 17.6709C86.1855 17.8408 86.4551 17.9639 86.7656 18.04C87.082 18.1162 87.4277 18.1543 87.8027 18.1543C88.2598 18.1543 88.6348 18.0898 88.9277 17.9609C89.2266 17.832 89.4463 17.6533 89.5869 17.4248C89.7334 17.1963 89.8066 16.9385 89.8066 16.6514ZM93.6738 15.3418V15.1572C93.6738 14.46 93.7734 13.8184 93.9727 13.2324C94.1719 12.6406 94.4619 12.1279 94.8428 11.6943C95.2236 11.2607 95.6924 10.9238 96.249 10.6836C96.8057 10.4375 97.4443 10.3145 98.165 10.3145C98.8857 10.3145 99.5273 10.4375 100.09 10.6836C100.652 10.9238 101.124 11.2607 101.505 11.6943C101.892 12.1279 102.185 12.6406 102.384 13.2324C102.583 13.8184 102.683 14.46 102.683 15.1572V15.3418C102.683 16.0332 102.583 16.6748 102.384 17.2666C102.185 17.8525 101.892 18.3652 101.505 18.8047C101.124 19.2383 100.655 19.5752 100.099 19.8154C99.542 20.0557 98.9033 20.1758 98.1826 20.1758C97.4619 20.1758 96.8203 20.0557 96.2578 19.8154C95.7012 19.5752 95.2295 19.2383 94.8428 18.8047C94.4619 18.3652 94.1719 17.8525 93.9727 17.2666C93.7734 16.6748 93.6738 16.0332 93.6738 15.3418ZM96.2051 15.1572V15.3418C96.2051 15.7402 96.2402 16.1123 96.3105 16.458C96.3809 16.8037 96.4922 17.1084 96.6445 17.3721C96.8027 17.6299 97.0078 17.832 97.2598 17.9785C97.5117 18.125 97.8193 18.1982 98.1826 18.1982C98.5342 18.1982 98.8359 18.125 99.0879 17.9785C99.3398 17.832 99.542 17.6299 99.6943 17.3721C99.8467 17.1084 99.958 16.8037 100.028 16.458C100.104 16.1123 100.143 15.7402 100.143 15.3418V15.1572C100.143 14.7705 100.104 14.4072 100.028 14.0674C99.958 13.7217 99.8438 13.417 99.6855 13.1533C99.5332 12.8838 99.3311 12.6729 99.0791 12.5205C98.8271 12.3682 98.5225 12.292 98.165 12.292C97.8076 12.292 97.5029 12.3682 97.251 12.5205C97.0049 12.6729 96.8027 12.8838 96.6445 13.1533C96.4922 13.417 96.3809 13.7217 96.3105 14.0674C96.2402 14.4072 96.2051 14.7705 96.2051 15.1572ZM108.167 18.1982C108.478 18.1982 108.753 18.1396 108.993 18.0225C109.233 17.8994 109.421 17.7295 109.556 17.5127C109.696 17.29 109.77 17.0293 109.775 16.7305H112.157C112.151 17.3984 111.973 17.9932 111.621 18.5146C111.27 19.0303 110.798 19.4375 110.206 19.7363C109.614 20.0293 108.952 20.1758 108.22 20.1758C107.481 20.1758 106.837 20.0527 106.286 19.8066C105.741 19.5605 105.287 19.2207 104.924 18.7871C104.561 18.3477 104.288 17.8379 104.106 17.2578C103.925 16.6719 103.834 16.0449 103.834 15.377V15.1221C103.834 14.4482 103.925 13.8213 104.106 13.2412C104.288 12.6553 104.561 12.1455 104.924 11.7119C105.287 11.2725 105.741 10.9297 106.286 10.6836C106.831 10.4375 107.47 10.3145 108.202 10.3145C108.981 10.3145 109.664 10.4639 110.25 10.7627C110.842 11.0615 111.305 11.4893 111.639 12.0459C111.979 12.5967 112.151 13.25 112.157 14.0059H109.775C109.77 13.6895 109.702 13.4023 109.573 13.1445C109.45 12.8867 109.269 12.6816 109.028 12.5293C108.794 12.3711 108.504 12.292 108.158 12.292C107.789 12.292 107.487 12.3711 107.253 12.5293C107.019 12.6816 106.837 12.8926 106.708 13.1621C106.579 13.4258 106.488 13.7275 106.436 14.0674C106.389 14.4014 106.365 14.7529 106.365 15.1221V15.377C106.365 15.7461 106.389 16.1006 106.436 16.4404C106.482 16.7803 106.57 17.082 106.699 17.3457C106.834 17.6094 107.019 17.8174 107.253 17.9697C107.487 18.1221 107.792 18.1982 108.167 18.1982ZM116.297 10.4902V20H113.757V10.4902H116.297ZM113.599 8.01172C113.599 7.64258 113.728 7.33789 113.985 7.09766C114.243 6.85742 114.589 6.7373 115.022 6.7373C115.45 6.7373 115.793 6.85742 116.051 7.09766C116.314 7.33789 116.446 7.64258 116.446 8.01172C116.446 8.38086 116.314 8.68555 116.051 8.92578C115.793 9.16602 115.45 9.28613 115.022 9.28613C114.589 9.28613 114.243 9.16602 113.985 8.92578C113.728 8.68555 113.599 8.38086 113.599 8.01172ZM123.521 17.8555V13.6191C123.521 13.3145 123.472 13.0537 123.372 12.8369C123.272 12.6143 123.117 12.4414 122.906 12.3184C122.701 12.1953 122.435 12.1338 122.106 12.1338C121.825 12.1338 121.582 12.1836 121.377 12.2832C121.172 12.377 121.014 12.5146 120.902 12.6963C120.791 12.8721 120.735 13.0801 120.735 13.3203H118.204C118.204 12.916 118.298 12.5322 118.485 12.1689C118.673 11.8057 118.945 11.4863 119.303 11.2109C119.66 10.9297 120.085 10.71 120.577 10.5518C121.075 10.3936 121.632 10.3145 122.247 10.3145C122.985 10.3145 123.642 10.4375 124.216 10.6836C124.79 10.9297 125.241 11.2988 125.569 11.791C125.903 12.2832 126.07 12.8984 126.07 13.6367V17.7061C126.07 18.2275 126.103 18.6553 126.167 18.9893C126.231 19.3174 126.325 19.6045 126.448 19.8506V20H123.891C123.768 19.7422 123.674 19.4199 123.609 19.0332C123.551 18.6406 123.521 18.248 123.521 17.8555ZM123.855 14.208L123.873 15.6406H122.458C122.124 15.6406 121.834 15.6787 121.588 15.7549C121.342 15.8311 121.14 15.9395 120.981 16.0801C120.823 16.2148 120.706 16.373 120.63 16.5547C120.56 16.7363 120.524 16.9355 120.524 17.1523C120.524 17.3691 120.574 17.5654 120.674 17.7412C120.773 17.9111 120.917 18.0459 121.104 18.1455C121.292 18.2393 121.512 18.2861 121.764 18.2861C122.145 18.2861 122.476 18.21 122.757 18.0576C123.038 17.9053 123.255 17.7178 123.407 17.4951C123.565 17.2725 123.647 17.0615 123.653 16.8623L124.321 17.9346C124.228 18.1748 124.099 18.4238 123.935 18.6816C123.776 18.9395 123.574 19.1826 123.328 19.4111C123.082 19.6338 122.786 19.8184 122.44 19.9648C122.095 20.1055 121.685 20.1758 121.21 20.1758C120.606 20.1758 120.059 20.0557 119.566 19.8154C119.08 19.5693 118.693 19.2324 118.406 18.8047C118.125 18.3711 117.984 17.8789 117.984 17.3281C117.984 16.8301 118.078 16.3877 118.266 16.001C118.453 15.6143 118.729 15.2891 119.092 15.0254C119.461 14.7559 119.921 14.5537 120.472 14.4189C121.022 14.2783 121.661 14.208 122.388 14.208H123.855ZM130.693 6.5V20H128.153V6.5H130.693Z" fill="#4E5D78"/>
<path d="M10.4 1H15.6C18.3583 1 21.0035 2.12381 22.9539 4.12419C24.9043 6.12458 26 8.83769 26 11.6667C26 14.4956 24.9043 17.2088 22.9539 19.2091C21.0035 21.2095 18.3583 22.3333 15.6 22.3333V27C9.1 24.3333 0 20.3333 0 11.6667C0 8.83769 1.09571 6.12458 3.04609 4.12419C4.99647 2.12381 7.64175 1 10.4 1Z" fill="#377DFF"/>
<path d="M19 10C19 11.5913 18.3679 13.1174 17.2426 14.2426C16.1174 15.3679 14.5913 16 13 16C11.4087 16 9.88258 15.3679 8.75736 14.2426C7.63214 13.1174 7 11.5913 7 10L9.4 10C9.4 10.9548 9.77928 11.8705 10.4544 12.5456C11.1295 13.2207 12.0452 13.6 13 13.6C13.9548 13.6 14.8705 13.2207 15.5456 12.5456C16.2207 11.8705 16.6 10.9548 16.6 10H19Z" fill="white"/>
</svg>
